<?xml version="1.0" standalone="no"?>
<!DOCTYPE svg PUBLIC "-//W3C//DTD SVG 20010904//EN"
 "http://www.w3.org/TR/2001/REC-SVG-20010904/DTD/svg10.dtd">
<svg version="1.0" xmlns="http://www.w3.org/2000/svg"
 width="640.000000pt" height="640.000000pt" viewBox="0 0 640.000000 640.000000"
 preserveAspectRatio="xMidYMid meet">
<metadata>
Created by potrace 1.14, written by Peter Selinger 2001-2017
</metadata>
<g transform="translate(0.000000,640.000000) scale(0.100000,-0.100000)"
fill="#000000" stroke="none">
<path d="M60 3200 l0 -3200 3140 0 3140 0 0 3200 0 3200 -3140 0 -3140 0 0
-3200z m3825 1348 c-4 -13 -223 -720 -489 -1573 l-482 -1550 -238 -3 c-211 -2
-238 -1 -232 13 3 9 222 712 486 1563 264 851 482 1553 485 1560 3 9 61 12
240 12 l235 0 -5 -22z"/>
</g>
</svg>
